<?xml version="1.0" encoding="UTF-8" standalone="no"?>
<!-- Created with Inkscape (http://www.inkscape.org/) -->

<svg
   xmlns:dc="http://purl.org/dc/elements/1.1/"
   xmlns:cc="http://creativecommons.org/ns#"
   xmlns:rdf="http://www.w3.org/1999/02/22-rdf-syntax-ns#"
   xmlns:svg="http://www.w3.org/2000/svg"
   xmlns="http://www.w3.org/2000/svg"
   xmlns:sodipodi="http://sodipodi.sourceforge.net/DTD/sodipodi-0.dtd"
   xmlns:inkscape="http://www.inkscape.org/namespaces/inkscape"
   version="1.1"
   id="svg16005"
   xml:space="preserve"
   width="800"
   height="800"
   viewBox="0 0 800 800"
   sodipodi:docname="love-music-publicdomainvectors [Converted].svg"
   inkscape:version="0.92.4 (5da689c313, 2019-01-14)"><metadata
     id="metadata16011"><rdf:RDF><cc:Work
         rdf:about=""><dc:format>image/svg+xml</dc:format><dc:type
           rdf:resource="http://purl.org/dc/dcmitype/StillImage" /><dc:title /></cc:Work></rdf:RDF></metadata><defs
     id="defs16009"><clipPath
       clipPathUnits="userSpaceOnUse"
       id="clipPath16021"><path
         d="M 0,600 H 600 V 0 H 0 Z"
         id="path16019"
         inkscape:connector-curvature="0" /></clipPath></defs><sodipodi:namedview
     pagecolor="#ffffff"
     bordercolor="#666666"
     borderopacity="1"
     objecttolerance="10"
     gridtolerance="10"
     guidetolerance="10"
     inkscape:pageopacity="0"
     inkscape:pageshadow="2"
     inkscape:window-width="1920"
     inkscape:window-height="1018"
     id="namedview16007"
     showgrid="false"
     inkscape:zoom="0.77781056"
     inkscape:cx="501.69492"
     inkscape:cy="376.27119"
     inkscape:window-x="-8"
     inkscape:window-y="-8"
     inkscape:window-maximized="1"
     inkscape:current-layer="g16013" /><g
     id="g16013"
     inkscape:groupmode="layer"
     inkscape:label="love-music-publicdomainvectors [Converted]"
     transform="matrix(1.3333333,0,0,-1.3333333,0,800)"><g
       id="g16015"><g
         id="g16017"
         clip-path="url(#clipPath16021)"><path
           d="m 541.542,314.658 c -3.782,3.204 -9.016,6.044 -15.096,7.931 -2.499,0.776 -5.007,1.203 -7.448,1.385 -11.182,0.833 -20.957,-3.761 -21.841,-6.618 -1.082,-3.481 7.254,-16.56 21.195,-20.881 5.775,-1.791 11.395,-2.42 16.17,-2.051 6.752,0.523 11.81,3.06 13.119,7.284 0.034,0.11 0.042,0.224 0.07,0.338 l 0.169,-0.065 31.432,85.928 1.364,3.732 -4.061,2.554 -11.52,-26.125 c -0.313,0.096 -0.61,0.191 -0.927,0.287 -1.061,0.333 -2.145,0.668 -3.254,1.012 -1.125,0.291 -2.285,0.536 -3.464,0.813 -2.36,0.544 -4.815,1.109 -7.365,1.695 -1.274,0.294 -2.571,0.59 -3.89,0.894 -0.661,0.152 -1.326,0.306 -1.998,0.459 -0.68,0.109 -1.365,0.218 -2.056,0.328 -2.765,0.431 -5.617,0.874 -8.553,1.332 -2.942,0.421 -5.946,1.034 -9.081,1.215 -3.128,0.276 -6.332,0.557 -9.612,0.845 -1.643,0.122 -3.297,0.333 -4.98,0.388 -1.682,0.045 -3.384,0.091 -5.102,0.137 -3.436,0.091 -6.946,0.182 -10.522,0.277 -3.573,-0.095 -7.214,-0.189 -10.916,-0.289 -1.852,-0.05 -3.718,-0.106 -5.6,-0.158 -1.88,-0.078 -3.768,-0.269 -5.674,-0.401 -3.809,-0.292 -7.678,-0.587 -11.598,-0.887 -8.776,-0.947 -17.818,-2.131 -27.017,-3.54 l 11.51,-3.758 c 5.416,0.753 10.784,1.452 16.032,2.041 3.864,0.314 7.679,0.622 11.434,0.926 1.878,0.139 3.74,0.337 5.591,0.421 1.852,0.06 3.69,0.12 5.509,0.181 3.643,0.112 7.228,0.224 10.744,0.331 3.512,-0.077 6.961,-0.154 10.337,-0.228 1.689,-0.036 3.36,-0.072 5.013,-0.107 1.653,-0.047 3.276,-0.25 4.887,-0.363 3.22,-0.268 6.364,-0.528 9.432,-0.784 3.077,-0.162 6.02,-0.752 8.905,-1.154 2.879,-0.433 5.676,-0.854 8.386,-1.264 0.678,-0.104 1.349,-0.209 2.014,-0.312 0.658,-0.148 1.311,-0.295 1.957,-0.441 1.292,-0.292 2.566,-0.577 3.813,-0.861 2.497,-0.561 4.904,-1.104 7.218,-1.624 1.155,-0.268 2.293,-0.501 3.395,-0.778 1.086,-0.333 2.15,-0.659 3.189,-0.978 0.098,-0.03 0.189,-0.058 0.288,-0.088 l -15.618,-35.42 c -3.595,0.885 -7.386,1.839 -11.402,2.676 -2.726,0.467 -5.54,0.952 -8.438,1.45 -1.45,0.247 -2.917,0.502 -4.408,0.757 -1.488,0.275 -2.999,0.514 -4.545,0.646 -3.085,0.33 -6.249,0.669 -9.485,1.018 -1.621,0.173 -3.257,0.349 -4.913,0.526 -1.662,0.084 -3.342,0.169 -5.041,0.253 -3.394,0.167 -6.861,0.338 -10.394,0.511 -3.533,0.124 -7.133,0.016 -10.795,0.034 -4.011,0.071 -8.087,-0.073 -12.226,-0.272 l -0.3,-5.984 c 4.262,0.222 8.461,0.395 12.571,0.331 3.597,-0.009 7.137,0.108 10.604,-0.002 3.463,-0.16 6.863,-0.317 10.193,-0.47 1.666,-0.078 3.315,-0.157 4.943,-0.233 1.62,-0.169 3.226,-0.336 4.809,-0.504 3.172,-0.331 6.27,-0.655 9.289,-0.968 1.516,-0.123 2.995,-0.351 4.449,-0.619 1.454,-0.246 2.894,-0.488 4.311,-0.726 2.833,-0.477 5.585,-0.944 8.251,-1.393 3.575,-0.732 6.952,-1.56 10.182,-2.349 l -2.319,-5.251 z m -79.849,46.821 -71.878,23.473 -5.431,1.774 -0.476,-23.774 c -7.843,-1.722 -15.744,-3.518 -23.691,-5.386 -15.851,-3.692 -31.895,-7.524 -47.986,-11.139 0.045,-0.03 0.087,-0.061 0.13,-0.091 1.161,-0.693 2.379,-1.381 3.667,-1.921 1.251,-0.606 2.562,-1.067 3.782,-1.55 0.468,-0.164 0.918,-0.33 1.366,-0.495 13.56,3.167 27.037,6.443 40.355,9.609 7.478,1.794 14.897,3.512 22.262,5.171 l -0.631,-31.644 c -9.035,-1.653 -18.157,-3.408 -27.342,-5.252 -17.349,-3.45 -34.93,-7.045 -52.545,-10.334 -5.654,-1.036 -11.312,-2.024 -16.968,-2.983 l -0.335,-6.643 c 6.169,1.054 12.335,2.144 18.491,3.291 17.683,3.355 35.276,7.011 52.591,10.503 8.737,1.782 17.408,3.485 25.98,5.087 l -0.385,-19.411 -0.047,-2.296 c -4.164,2.314 -9.85,3.884 -16.241,4.272 -1.014,0.06 -2.044,0.099 -3.092,0.099 -14.593,0 -26.427,-10.025 -26.427,-13.669 0,-1.371 1.674,-3.642 4.535,-5.941 -15.087,-2.767 -30.337,-5.571 -45.623,-8.102 -3.775,-0.635 -7.554,-1.231 -11.332,-1.806 0.004,-0.048 0.016,-0.094 0.016,-0.142 0,-2.264 -1.084,-4.393 -2.966,-6.274 5.087,0.776 10.174,1.587 15.243,2.469 17.033,2.913 33.982,6.156 50.646,9.296 0.372,0.07 0.742,0.135 1.114,0.205 4.221,-1.96 9.313,-3.375 14.794,-3.375 1.044,0 2.068,0.039 3.082,0.102 13.14,0.79 23.346,6.558 23.346,13.568 0,0.113 -0.027,0.227 -0.033,0.342 l 0.181,-0.012 2.586,72.217 5.431,-1.002 52.971,-9.775 0.074,-15.024 c -14.129,-1.178 -28.843,-2.851 -43.911,-5.299 -3.401,-0.545 -6.835,-1.129 -10.271,-1.717 l -0.227,-6.29 c 3.843,0.673 7.67,1.328 11.463,1.948 14.79,2.452 29.174,4.132 42.977,5.332 l 0.164,-33.076 c -2.922,-0.071 -5.856,-0.142 -8.848,-0.214 -14.893,-0.688 -30.565,-2.051 -46.627,-4.339 -0.072,-0.009 -0.146,-0.023 -0.217,-0.03 l -0.097,-2.731 -0.18,0.012 c 0.005,-0.115 0.031,-0.229 0.031,-0.342 0,-0.822 -0.163,-1.623 -0.432,-2.405 0.541,0.081 1.092,0.171 1.632,0.249 15.928,2.355 31.408,3.779 46.101,4.537 2.929,0.086 5.8,0.172 8.662,0.257 l 0.068,-13.935 0.014,-2.711 c -4.229,2.819 -10.521,4.761 -17.715,5.206 -1.034,0.064 -2.085,0.098 -3.152,0.098 -14.599,0 -26.429,-10.025 -26.429,-13.669 0,-3.646 11.83,-13.67 26.429,-13.67 1.042,0 2.065,0.039 3.076,0.102 13.144,0.788 23.351,6.558 23.351,13.568 0,0.128 -0.031,0.254 -0.037,0.382 l 0.183,-0.048 z m -178.013,2.162 c 0.184,-0.221 0.381,-0.423 0.544,-0.669 1.259,-1.705 2.035,-4.004 3.094,-7.032 0.365,-1.07 0.791,-2.247 1.27,-3.463 0.203,-0.514 0.388,-1.015 0.623,-1.545 0.765,-1.798 1.776,-3.677 3.05,-5.525 0.713,-0.969 1.517,-1.914 2.394,-2.798 -2.21,-0.46 -4.418,-0.9 -6.63,-1.349 l -0.312,-6.268 c 4.65,0.962 9.298,1.949 13.943,2.965 0.453,-0.183 0.906,-0.354 1.353,-0.507 2.003,-0.636 3.955,-0.985 5.755,-1.07 1.523,-0.117 2.934,-0.027 4.243,0.102 0.246,0.023 0.493,0.047 0.73,0.074 1.5,0.239 2.847,0.475 4.008,0.848 1.165,0.332 2.159,0.691 2.962,1.047 0.804,0.315 1.422,0.659 1.844,0.851 0.416,0.224 0.638,0.343 0.638,0.343 0,0 -0.235,0.1 -0.676,0.284 -0.437,0.156 -1.076,0.449 -1.873,0.694 -0.799,0.246 -1.75,0.652 -2.819,1.007 -1.074,0.334 -2.237,0.805 -3.48,1.235 -1.219,0.483 -2.528,0.944 -3.779,1.55 -1.29,0.54 -2.507,1.228 -3.667,1.921 -1.134,0.741 -2.199,1.507 -3.125,2.407 -0.924,0.911 -1.817,1.866 -2.623,3.031 -0.844,1.144 -1.616,2.476 -2.466,3.9 -0.825,1.438 -1.696,2.977 -2.692,4.54 -0.989,1.568 -2.147,3.145 -3.5,4.538 -1.338,1.395 -2.923,2.58 -4.535,3.306 -0.783,0.4 -1.598,0.628 -2.338,0.849 -0.103,0.019 -0.186,0.023 -0.285,0.043 -0.651,0.128 -1.282,0.24 -1.855,0.29 -0.67,0.004 -1.276,0.025 -1.836,-0.017 -0.556,-0.081 -1.072,-0.156 -1.532,-0.227 -0.9,-0.106 -1.498,-0.456 -1.958,-0.571 -0.441,-0.171 -0.679,-0.261 -0.679,-0.261 0,0 0.155,-0.087 0.374,-0.212 l -2.976,-29.273 c -6.864,-1.299 -13.718,-2.53 -20.544,-3.605 -4.389,-0.748 -8.791,-1.253 -13.157,-1.891 -2.182,-0.303 -4.361,-0.603 -6.532,-0.904 -2.175,-0.271 -4.35,-0.461 -6.518,-0.695 -4.334,-0.439 -8.641,-0.875 -12.919,-1.306 -4.286,-0.27 -8.541,-0.537 -12.762,-0.804 -4.218,-0.346 -8.41,-0.37 -12.559,-0.442 -4.15,-0.033 -8.262,-0.233 -12.322,-0.135 -4.063,0.13 -8.078,0.26 -12.045,0.385 -0.645,0.031 -1.288,0.042 -1.929,0.06 4.114,-1.778 7.543,-4.14 10.352,-6.922 1.193,-0.032 2.364,-0.066 3.564,-0.098 4.136,-0.08 8.313,0.136 12.534,0.193 4.218,0.092 8.481,0.138 12.758,0.505 4.282,0.29 8.6,0.582 12.95,0.876 4.331,0.455 8.694,0.915 13.082,1.381 2.194,0.246 4.399,0.45 6.597,0.733 2.196,0.313 4.396,0.629 6.603,0.943 4.408,0.663 8.86,1.197 13.289,1.971 6.293,1.02 12.599,2.177 18.908,3.384 l -2.824,-27.774 c -6.969,-1.068 -13.923,-2.072 -20.844,-2.931 -4.363,-0.524 -8.717,-0.93 -13.05,-1.401 -2.164,-0.214 -4.325,-0.473 -6.479,-0.654 -2.16,-0.151 -4.31,-0.302 -6.457,-0.453 -4.293,-0.263 -8.551,-0.685 -12.794,-0.82 -4.237,-0.13 -8.447,-0.262 -12.619,-0.394 l -3.126,-0.096 -3.108,0.031 c -2.069,0.026 -4.129,0.054 -6.178,0.079 -0.638,0.007 -1.27,0.017 -1.908,0.025 0.245,-2.303 0.336,-4.586 0.287,-6.801 0.516,-0.006 1.026,-0.01 1.541,-0.015 2.087,-0.022 4.179,-0.041 6.283,-0.06 l 3.165,-0.026 3.172,0.109 c 4.238,0.144 8.512,0.293 12.817,0.441 4.302,0.147 8.62,0.581 12.97,0.867 2.175,0.159 4.355,0.319 6.542,0.479 2.183,0.186 4.365,0.456 6.557,0.681 4.376,0.485 8.785,0.915 13.194,1.456 6.432,0.818 12.886,1.763 19.348,2.761 l -1.352,-13.296 -0.176,-1.724 c -3.798,1.596 -8.473,2.649 -13.592,2.955 -1,0.059 -2.014,0.101 -3.046,0.101 -14.597,0 -26.428,-10.024 -26.428,-13.669 0,-1.366 1.662,-3.631 4.511,-5.927 -11.887,-0.746 -23.625,-0.961 -35.068,-0.858 -4.005,0.122 -7.978,0.239 -11.911,0.356 -1.57,0.041 -3.126,0.143 -4.678,0.256 -0.986,-2.123 -2.092,-4.207 -3.32,-6.235 2.551,-0.194 5.121,-0.391 7.712,-0.447 4,-0.099 8.038,-0.197 12.109,-0.299 14.594,-0.056 29.641,0.398 44.825,1.796 3.665,-1.383 7.823,-2.311 12.248,-2.311 1.041,0 2.064,0.039 3.077,0.101 13.142,0.788 23.35,6.557 23.35,13.568 0,0.116 -0.029,0.227 -0.035,0.342 l 0.182,-0.009 z M 124.799,246.007 c 1.149,0.098 2.284,0.237 3.385,0.454 0.061,5.824 0.046,12.331 -0.032,19.302 -0.333,0.058 -0.684,0.119 -1.015,0.175 -3.723,0.786 -7.351,1.612 -10.918,2.434 -1.51,2.467 -2.488,5.058 -3.022,7.681 4.822,-1.137 9.747,-2.313 14.866,-3.424 -0.125,7.583 -0.303,15.598 -0.523,23.809 -2.66,0.384 -5.251,0.885 -7.811,1.423 2.136,2.203 4.699,4.032 7.617,5.315 -0.017,0.55 -0.031,1.101 -0.049,1.654 -16.642,-3.023 -25.6,-22.257 -16.28,-36.862 2.05,-3.211 4.975,-6.203 8.908,-8.746 -7.305,0.934 -12.997,5.697 -16.733,12.366 -1.699,0.482 -3.377,0.963 -5.035,1.434 -0.691,2.426 -1.207,4.968 -1.516,7.611 1.071,-0.311 2.142,-0.624 3.232,-0.942 -2.012,7.108 -2.284,15.207 -0.52,22.917 -0.095,0.029 -0.188,0.056 -0.285,0.086 0.34,1 0.71,2.009 1.116,3.022 2.324,7.597 6.712,14.598 13.483,19.586 1.305,0.963 2.72,1.824 4.204,2.627 -0.417,0.086 -0.831,0.169 -1.246,0.253 1.976,1.869 4.069,3.766 6.235,5.697 0.187,-0.037 0.372,-0.077 0.561,-0.115 0.875,-0.127 1.758,-0.255 2.64,-0.382 0.088,-0.013 0.179,-0.026 0.265,-0.038 -0.043,1.167 -0.086,2.323 -0.132,3.484 -0.061,1.553 -0.118,3.122 -0.178,4.661 -11.915,-10.541 -23.078,-19.808 -28.159,-29.102 -18.112,-33.114 2.735,-63.199 18.604,-66.008 2.903,-0.515 5.678,-0.6 8.338,-0.372 m -44.644,11.755 c -5.913,6.707 -10.701,15.109 -12.805,25.313 -0.432,0.165 -0.884,0.31 -1.306,0.487 -2.3,0.938 -4.521,1.839 -6.653,2.708 -4.264,1.738 -8.177,3.334 -11.716,4.776 -6.354,2.893 -11.361,5.3 -14.983,6.991 1.434,-7.934 3.612,-15.084 6.671,-20.766 14.129,-7.57 27.706,-14.031 40.792,-19.509 m -48.703,48.897 c 0.888,-0.422 2.038,-0.97 3.451,-1.642 3.649,-1.718 8.99,-4.331 15.814,-7.486 3.441,-1.418 7.25,-2.991 11.395,-4.705 1.358,-0.56 2.764,-1.143 4.194,-1.734 -0.38,6.49 0.311,13.611 2.365,21.387 -1.57,0.567 -3.119,1.12 -4.621,1.661 -2.434,0.86 -4.698,1.966 -6.916,2.88 -4.416,1.899 -8.472,3.646 -12.139,5.224 -1.858,0.753 -3.514,1.595 -5.068,2.392 -1.562,0.787 -3.028,1.524 -4.389,2.211 -1.867,0.944 -3.533,1.781 -5.008,2.525 -0.168,-7.659 0.115,-15.379 0.922,-22.713 m 55.078,35.996 c 5.803,5.844 12.442,10.979 19.298,15.691 -21.4,4.551 -43.28,11.933 -65.712,22.812 -2.191,-4.176 -4.131,-10.137 -5.683,-17.206 1.506,-0.754 3.207,-1.605 5.123,-2.563 1.381,-0.692 2.865,-1.435 4.449,-2.228 0.79,-0.395 1.606,-0.806 2.446,-1.226 0.854,-0.362 1.73,-0.735 2.631,-1.119 3.604,-1.517 7.596,-3.199 11.939,-5.031 2.197,-0.871 4.384,-1.98 6.834,-2.743 2.418,-0.839 4.924,-1.708 7.509,-2.605 2.587,-0.899 5.257,-1.824 8.007,-2.779 1.024,-0.385 2.085,-0.704 3.159,-1.003 M 70.821,319.297 c 2.544,6.553 6.17,12.379 10.519,17.648 -0.025,0.009 -0.049,0.016 -0.076,0.026 -2.816,0.964 -5.55,1.898 -8.2,2.802 -5.297,1.816 -10.288,3.416 -14.743,5.425 -4.496,1.876 -8.624,3.597 -12.354,5.152 -0.931,0.394 -1.837,0.775 -2.717,1.145 -0.839,0.417 -1.662,0.824 -2.454,1.215 -1.586,0.786 -3.074,1.522 -4.459,2.207 -1.191,0.591 -2.289,1.134 -3.324,1.646 -0.997,-6 -1.732,-12.508 -2.147,-19.213 0.333,-0.17 0.666,-0.339 1.03,-0.524 1.878,-0.952 4.192,-2.128 6.912,-3.511 1.361,-0.691 2.823,-1.431 4.382,-2.221 1.558,-0.806 3.214,-1.656 4.998,-2.376 3.549,-1.537 7.477,-3.238 11.758,-5.093 2.154,-0.894 4.325,-1.969 6.706,-2.817 1.361,-0.494 2.756,-0.997 4.169,-1.511 m 63.365,-71 c 1.936,0.823 3.759,1.856 5.476,3.027 4.195,2.864 7.702,6.654 10.368,10.919 -0.467,0.056 -0.938,0.114 -1.404,0.169 -3.029,0.302 -5.99,0.83 -8.919,1.344 0.01,2.199 0.021,4.454 0.032,6.764 3.214,-0.577 6.459,-1.208 9.794,-1.553 1.22,-0.152 2.455,-0.312 3.683,-0.469 3.336,8.266 3.74,17.301 0.426,24.352 -1.086,0.119 -2.178,0.239 -3.252,0.357 -3.55,0.416 -7.056,0.744 -10.504,1.214 0.018,2.308 0.038,4.631 0.057,6.973 2.448,-0.363 4.941,-0.635 7.452,-0.908 -1.982,1.46 -4.307,2.656 -7.042,3.475 -0.13,0.039 -0.256,0.059 -0.386,0.096 -1.869,0.534 -3.692,0.878 -5.46,1.047 -0.19,-21.303 -0.279,-41.757 -0.321,-56.807 m 1.541,129.181 c 1.947,1.305 3.813,2.61 5.594,3.926 10.398,7.675 17.635,15.684 17.635,25.879 0,6.264 -2.636,14.431 -6.648,17.078 -3.891,2.568 -9.075,-0.052 -14.42,-14.67 -0.933,-2.563 -1.636,-14.958 -2.161,-32.213 M 107.318,185.485 c -4.373,-0.475 -8.951,0.177 -13.475,2.112 -18.006,7.702 -24.983,32.299 -13.898,46.548 l 0.009,-0.007 c 2.857,4.255 7.437,7.028 12.614,7.028 0.951,0 1.872,-0.108 2.773,-0.285 7.338,-1.443 12.911,-8.485 12.911,-16.971 0,-7.068 -3.869,-13.138 -9.401,-15.804 -0.861,-7.087 4.347,-10.298 10.571,-8.832 6.648,1.563 14.449,8.46 17.253,21.727 0.558,2.647 0.943,7.028 1.188,12.711 -2.759,0.731 -5.546,1.502 -8.355,2.317 -1.534,0.189 -3.086,0.413 -4.688,0.721 -3.737,0.716 -8.951,2.512 -14.579,5.455 -20.374,7.138 -41.927,16.604 -64.925,28.959 -0.481,0.219 -0.941,0.465 -1.378,0.737 -0.087,0.048 -0.174,0.093 -0.264,0.141 l 0.015,0.022 c -4.119,2.698 -6.244,7.37 -6.244,7.37 0,0 -25.172,70.147 -11.718,114.761 l 2.037,7.467 c 4.594,-2.734 10.169,-6.047 14.779,-8.504 h -0.004 c 28.151,-14.991 55.444,-24.184 82.052,-29.046 3.448,2.193 6.879,4.313 10.222,6.393 -0.976,22.409 -1.804,39.249 -1.894,42.799 -0.83,33.069 12.957,50.189 25.374,47.299 10.559,-2.459 20.127,-19.386 18.871,-53.32 -0.897,-24.244 -15.954,-42.357 -32.085,-57.556 -0.096,-5.526 -0.185,-11.229 -0.264,-17.014 1.756,0.132 3.581,0.177 5.472,0.139 0.555,-0.007 1.11,-0.018 1.68,-0.044 0.787,-0.038 1.588,-0.087 2.4,-0.157 31.445,-2.652 37.566,-30.495 34.654,-48.553 -3.321,-20.587 -16.952,-44.897 -44.864,-48.215 -0.007,-7.514 -0.007,-11.973 -0.007,-11.973 0.142,-22.409 -12.168,-36.83 -26.832,-38.425 m 202.728,54.831 c -50.317,-8.157 -101.76,-16.493 -164.295,-3.304 -1.961,-0.488 -3.997,-0.875 -6.126,-1.129 -0.003,-1.885 -0.003,-3.579 -0.007,-5.058 65.719,-14.868 119.257,-6.188 171.594,2.294 56.642,9.185 110.617,17.909 175.596,-5.829 -16.516,-25.282 -153.96,-130.212 -188.547,-140.6 -38.543,16.211 -120.514,47.685 -182.209,99.369 -1.417,-0.35 -2.862,-0.572 -4.334,-0.667 84.074,-73.129 190.357,-120.726 190.357,-120.726 0,0 132.759,59.446 218.893,147.547 0.33,-0.168 0.653,-0.323 0.982,-0.494 l 3.367,6.467 c -83.492,43.494 -147.502,33.117 -215.271,22.13 m 245.267,37.686 c -1.375,0.537 -2.823,1.195 -4.423,1.748 -1.608,0.535 -3.315,1.103 -5.119,1.702 -3.623,1.157 -7.58,2.614 -11.986,3.876 -4.436,1.158 -9.236,2.41 -14.364,3.749 -5.2,1.015 -10.734,2.095 -16.568,3.235 -2.948,0.389 -5.969,0.788 -9.063,1.198 -3.098,0.366 -6.25,0.933 -9.507,1.092 -6.5,0.462 -13.268,1.128 -20.295,1.132 -0.041,0 -0.082,0.002 -0.123,0.004 l -0.248,-4.937 c 0.088,0 0.178,-0.004 0.263,-0.004 6.922,0.035 13.573,-0.59 19.97,-1.008 3.204,-0.139 6.301,-0.68 9.347,-1.026 3.043,-0.386 6.014,-0.761 8.91,-1.127 5.739,-1.087 11.179,-2.122 16.291,-3.089 5.044,-1.289 9.762,-2.494 14.126,-3.611 4.336,-1.213 8.233,-2.63 11.8,-3.747 1.777,-0.58 3.457,-1.128 5.041,-1.644 1.577,-0.534 3.004,-1.177 4.358,-1.697 2.697,-1.082 4.991,-2 6.851,-2.743 3.72,-1.49 5.705,-2.285 5.705,-2.285 l 1.769,4.003 c 0,0 -2.015,0.822 -5.784,2.353 -1.887,0.767 -4.216,1.715 -6.951,2.826 m 8.498,45.532 c -0.752,0.237 -1.53,0.486 -2.311,0.736 l -1.952,-5.34 c 0.853,-0.271 1.697,-0.536 2.513,-0.792 7.477,-2.131 13.024,-4.722 16.919,-6.175 3.869,-1.534 5.929,-2.357 5.929,-2.357 l 2.262,5.125 c 0,0 -2.107,0.843 -6.059,2.43 -3.98,1.502 -9.655,4.163 -17.301,6.373 m 23.941,36.578 c -2.898,1.097 -6.712,2.791 -11.509,4.464 l -1.636,-4.472 c 4.743,-1.627 8.508,-3.284 11.371,-4.35 3.923,-1.542 6.017,-2.365 6.017,-2.365 l 1.89,4.278 c 0,0 -2.133,0.85 -6.133,2.445 M 584.964,416.4 C 503.373,452.885 424.53,426.444 341.055,398.453 279.838,377.925 217.292,356.959 150.706,360.026 c -2.175,-2.399 -4.424,-4.729 -6.722,-6.987 6.644,-0.459 13.251,-0.706 19.816,-0.706 62.648,0 121.702,19.803 179.57,39.209 82.091,27.526 159.625,53.525 238.617,18.202 z M 41.763,396.258 18.489,409.459 c 38.734,120.306 221.418,142.607 283.586,15.257 85.018,123.88 241.48,106.154 281.402,-5.64 C 478.617,570.483 336.022,447.545 300.983,394.195 225.308,513.32 84.745,504.302 41.763,396.258"
           style="fill:#fff;fill-opacity:1;fill-rule:nonzero;stroke:none"
           id="path16023"
           inkscape:connector-curvature="0" /></g></g></g></svg>